<svg width="838" height="112" viewBox="0 0 838 112" fill="none" xmlns="http://www.w3.org/2000/svg">
<g clip-path="url(#clip0_758_2361)">
<path d="M626.634 61.6936V59.9018C626.634 54.0782 627.792 49.1133 630.106 45.0069C632.421 40.8259 635.482 37.6528 639.289 35.4877C643.172 33.2478 647.39 32.1279 651.944 32.1279C657.021 32.1279 660.866 33.0239 663.479 34.8157C666.093 36.6076 667.996 38.4741 669.191 40.4153H671.207V33.6958H685.094V99.0987C685.094 102.906 683.974 105.93 681.734 108.17C679.494 110.485 676.508 111.642 672.775 111.642H635.594V99.3227H667.847C669.938 99.3227 670.983 98.2028 670.983 95.963V81.5161H668.967C668.22 82.7107 667.175 83.9426 665.831 85.2118C664.487 86.4064 662.695 87.4143 660.456 88.2356C658.216 89.0569 655.379 89.4675 651.944 89.4675C647.39 89.4675 643.172 88.3849 639.289 86.2197C635.482 83.9799 632.421 80.8068 630.106 76.7005C627.792 72.5195 626.634 67.5172 626.634 61.6936ZM655.976 77.1484C660.306 77.1484 663.927 75.7672 666.839 73.0048C669.751 70.2423 671.207 66.3599 671.207 61.3577V60.2378C671.207 55.1608 669.751 51.2784 666.839 48.5907C664.002 45.8282 660.381 44.447 655.976 44.447C651.646 44.447 648.025 45.8282 645.113 48.5907C642.201 51.2784 640.745 55.1608 640.745 60.2378V61.3577C640.745 66.3599 642.201 70.2423 645.113 73.0048C648.025 75.7672 651.646 77.1484 655.976 77.1484Z" fill="white"/>
<path d="M560.312 89.2434V33.6957H574.198V40.9752H576.214C577.11 39.034 578.79 37.2048 581.254 35.4876C583.718 33.6957 587.451 32.7998 592.453 32.7998C596.783 32.7998 600.554 33.8077 603.764 35.8236C607.049 37.7648 609.588 40.4899 611.38 43.9989C613.171 47.4333 614.067 51.465 614.067 56.094V89.2434H599.956V57.2139C599.956 53.0329 598.911 49.8971 596.821 47.8066C594.805 45.7161 591.893 44.6709 588.085 44.6709C583.755 44.6709 580.395 46.1268 578.006 49.0385C575.617 51.8757 574.422 55.87 574.422 61.0216V89.2434H560.312Z" fill="white"/>
<path d="M530.564 89.2431V33.6954H544.675V89.2431H530.564ZM537.62 27.1999C535.081 27.1999 532.916 26.3786 531.124 24.7361C529.407 23.0935 528.548 20.9283 528.548 18.2406C528.548 15.5528 529.407 13.3876 531.124 11.7451C532.916 10.1025 535.081 9.28125 537.62 9.28125C540.233 9.28125 542.398 10.1025 544.115 11.7451C545.832 13.3876 546.691 15.5528 546.691 18.2406C546.691 20.9283 545.832 23.0935 544.115 24.7361C542.398 26.3786 540.233 27.1999 537.62 27.1999Z" fill="white"/>
<path d="M459.147 111.642V33.6958H473.034V40.4153H475.05C476.319 38.2501 478.298 36.3463 480.986 34.7037C483.674 32.9865 487.519 32.1279 492.521 32.1279C497.001 32.1279 501.144 33.2478 504.952 35.4877C508.76 37.6528 511.821 40.8633 514.135 45.1189C516.45 49.3746 517.607 54.5262 517.607 60.5737V62.3656C517.607 68.4131 516.45 73.5647 514.135 77.8204C511.821 82.0761 508.76 85.3238 504.952 87.5636C501.144 89.7288 497.001 90.8114 492.521 90.8114C489.161 90.8114 486.324 90.4007 484.009 89.5795C481.77 88.8329 479.94 87.8623 478.522 86.6677C477.178 85.3985 476.095 84.1292 475.274 82.86H473.258V111.642H459.147ZM488.265 78.4923C492.67 78.4923 496.291 77.1111 499.128 74.3487C502.04 71.5115 503.496 67.4052 503.496 62.0296V60.9097C503.496 55.5341 502.04 51.4651 499.128 48.7027C496.217 45.8655 492.596 44.447 488.265 44.447C483.935 44.447 480.314 45.8655 477.402 48.7027C474.49 51.4651 473.034 55.5341 473.034 60.9097V62.0296C473.034 67.4052 474.49 71.5115 477.402 74.3487C480.314 77.1111 483.935 78.4923 488.265 78.4923Z" fill="white"/>
<path d="M387.731 111.642V33.6958H401.618V40.4153H403.634C404.903 38.2501 406.881 36.3463 409.569 34.7037C412.257 32.9865 416.102 32.1279 421.104 32.1279C425.584 32.1279 429.728 33.2478 433.535 35.4877C437.343 37.6528 440.404 40.8633 442.719 45.1189C445.033 49.3746 446.19 54.5262 446.19 60.5737V62.3656C446.19 68.4131 445.033 73.5647 442.719 77.8204C440.404 82.0761 437.343 85.3238 433.535 87.5636C429.728 89.7288 425.584 90.8114 421.104 90.8114C417.745 90.8114 414.908 90.4007 412.593 89.5795C410.353 88.8329 408.524 87.8623 407.105 86.6677C405.762 85.3985 404.679 84.1292 403.858 82.86H401.842V111.642H387.731ZM416.849 78.4923C421.254 78.4923 424.875 77.1111 427.712 74.3487C430.624 71.5115 432.08 67.4052 432.08 62.0296V60.9097C432.08 55.5341 430.624 51.4651 427.712 48.7027C424.8 45.8655 421.179 44.447 416.849 44.447C412.518 44.447 408.897 45.8655 405.986 48.7027C403.074 51.4651 401.618 55.5341 401.618 60.9097V62.0296C401.618 67.4052 403.074 71.5115 405.986 74.3487C408.897 77.1111 412.518 78.4923 416.849 78.4923Z" fill="white"/>
<path d="M357.984 89.2431V33.6954H372.095V89.2431H357.984ZM365.039 27.1999C362.501 27.1999 360.335 26.3786 358.544 24.7361C356.826 23.0935 355.968 20.9283 355.968 18.2406C355.968 15.5528 356.826 13.3876 358.544 11.7451C360.335 10.1025 362.501 9.28125 365.039 9.28125C367.652 9.28125 369.817 10.1025 371.535 11.7451C373.252 13.3876 374.11 15.5528 374.11 18.2406C374.11 20.9283 373.252 23.0935 371.535 24.7361C369.817 26.3786 367.652 27.1999 365.039 27.1999Z" fill="white"/>
<path d="M313.581 89.2434V33.6957H327.467V39.9672H329.483C330.305 37.7273 331.648 36.0848 333.515 35.0396C335.456 33.9943 337.696 33.4717 340.235 33.4717H346.954V46.0147H340.011C336.427 46.0147 333.478 46.9853 331.163 48.9265C328.849 50.793 327.691 53.7048 327.691 57.6618V89.2434H313.581Z" fill="white"/>
<path d="M273.092 89.2435V24.2886H250.246V10.8496H310.721V24.2886H287.875V89.2435H273.092Z" fill="white"/>
<path d="M200.376 89.2435V10.8496H215.159V89.2435H200.376Z" fill="white"/>
<path d="M76.8022 89.2434V33.6957H90.6892V39.7433H92.705C93.6756 37.8767 95.2808 36.2715 97.5206 34.9276C99.7605 33.5091 102.71 32.7998 106.368 32.7998C110.325 32.7998 113.498 33.5837 115.887 35.1516C118.276 36.6448 120.106 38.6234 121.375 41.0872H123.391C124.66 38.698 126.452 36.7195 128.766 35.1516C131.081 33.5837 134.366 32.7998 138.621 32.7998C142.056 32.7998 145.154 33.5464 147.917 35.0396C150.754 36.4582 152.994 38.6607 154.636 41.6471C156.353 44.5589 157.212 48.2546 157.212 52.7343V89.2434H143.101V53.7422C143.101 50.6811 142.317 48.4039 140.749 46.9107C139.181 45.3428 136.979 44.5589 134.142 44.5589C130.931 44.5589 128.43 45.6041 126.638 47.6946C124.921 49.7105 124.063 52.6223 124.063 56.43V89.2434H109.952V53.7422C109.952 50.6811 109.168 48.4039 107.6 46.9107C106.032 45.3428 103.829 44.5589 100.992 44.5589C97.782 44.5589 95.2808 45.6041 93.4889 47.6946C91.7717 49.7105 90.9131 52.6223 90.9131 56.43V89.2434H76.8022Z" fill="white"/>
<path d="M0 89.2435L20.6064 10.8496H46.3644L66.9708 89.2435H51.74L47.4843 71.9969H19.4865L15.2308 89.2435H0ZM22.9582 58.3339H44.0126L34.4933 20.1449H32.4775L22.9582 58.3339Z" fill="white"/>
<path d="M784.526 65.7301C790.045 53.0111 794.827 43.1702 798.874 36.2072C805.221 25.1594 813.085 13.0903 822.466 0L837.918 13.7866C828.537 26.8769 821.868 36.8107 817.913 43.5879C811.383 54.8215 805.405 66.9834 799.978 80.0737L784.526 65.7301ZM770.868 98.7344C770.868 95.0208 772.109 91.9107 774.593 89.404C777.076 86.8974 780.111 85.6441 783.698 85.6441C787.285 85.6441 790.321 86.8974 792.804 89.404C795.287 91.9107 796.529 94.9744 796.529 98.5951C796.529 104.165 793.908 108.158 788.665 110.571C783.514 112.799 778.824 111.871 774.593 107.786C772.109 105.372 770.868 102.355 770.868 98.7344Z" fill="white"/>
<path d="M721.267 11.2318C740.718 2.27324 758.033 -0.405092 773.212 3.19681L785.483 22.4531C784.392 32.9818 780.438 41.7556 773.621 48.7747C770.622 51.8225 767.35 54.547 763.805 56.9483C760.351 59.3495 756.942 61.7508 753.579 64.1521C750.216 66.461 747.081 69.0008 744.172 71.7715C741.354 74.5422 739.127 77.8208 737.491 81.6074L721.403 69.5549C724.039 63.367 728.993 57.5486 736.264 52.0995C739.355 49.883 742.491 47.7588 745.672 45.727C748.853 43.6951 751.807 41.5709 754.534 39.3544C760.624 34.1824 764.214 28.133 765.305 21.2063C755.488 19.821 742.627 22.3146 726.721 28.6872L721.267 11.2318ZM706.679 99.0628C706.679 95.3685 707.906 92.2746 710.36 89.781C712.814 87.2874 715.813 86.0405 719.358 86.0405C722.903 86.0405 725.903 87.2874 728.357 89.781C730.811 92.2746 732.038 95.3224 732.038 98.9243C732.038 104.466 729.447 108.437 724.266 110.838C719.176 113.055 714.541 112.131 710.36 108.068C707.906 105.666 706.679 102.665 706.679 99.0628Z" fill="white"/>
</g>
<defs>
<clipPath id="clip0_758_2361">
<rect width="838" height="112" fill="white"/>
</clipPath>
</defs>
</svg>
